# AST/ASF file generated using VICON BodyLanguage
# -----------------------------------------------
:version 1.10
:name VICON
:units
  mass 1.0
  length 0.45
  angle deg
:documentation
   .ast/.asf automatically generated from VICON data using
   VICON BodyBuilder and BodyLanguage model FoxedUp or BRILLIANT.MOD
:root
   order TX TY TZ RX RY RZ
   axis XYZ
   position 0 0 0  
   orientation 0 0 0 
:bonedata
  begin
     id 1 
     name lhipjoint
     direction 0.576517 -0.752066 0.319413 
     length 2.45433 
     axis 0 0 0  XYZ
  end
  begin
     id 2 
     name lfemur
     direction 0.34202 -0.939693 0  
     length 7.54459  
     axis 0 0 20  XYZ
    dof rx ry rz
    limits (-160.0 20.0)
           (-70.0 70.0)
           (-60.0 70.0)
  end
  begin
     id 3 
     name ltibia
     direction 0.34202 -0.939693 0   
     length 7.73986   
     axis 0 0 20   XYZ
    dof rx
    limits (-10.0 170.0)
  end
  begin
     id 4 
     name lfoot
     direction 0.090693 -0.249177 0.964202   
     length 2.28437   
     axis -90 7.62852e-016 20   XYZ
    dof rx rz
    limits (-45.0 90.0)
           (-70.0 20.0)
  end
  begin
     id 5 
     name ltoes
     direction 1.5356e-011 -4.21928e-011 1   
     length 1.14243   
     axis -90 7.62852e-016 20   XYZ
    dof rx
    limits (-90.0 20.0)
  end
  begin
     id 6 
     name rhipjoint
     direction -0.573937 -0.753736 0.320122   
     length 2.44889  
     axis 0 0 0  XYZ 
  end
  begin
     id 7 
     name rfemur
     direction -0.34202 -0.939693 0   
     length 7.50166   
     axis 0 0 -20   XYZ
    dof rx ry rz
    limits (-160.0 20.0)
           (-70.0 70.0)
           (-70.0 60.0)
  end
  begin
     id 8 
     name rtibia
     direction -0.34202 -0.939693 0   
     length 7.54266   
     axis 0 0 -20   XYZ
    dof rx
    limits (-10.0 170.0)
 end
 begin
     id 9 
     name rfoot
     direction -0.114017 -0.31326 0.942798   
     length 2.34212  
     axis -90 -7.62852e-016 -20   XYZ
    dof rx rz
    limits (-45.0 90.0)
           (-20.0 70.0)
  end
  begin
     id 10 
     name rtoes
     direction -1.53557e-011 -4.21867e-011 1   
     length 1.16246   
     axis -90 -7.62852e-016 -20   XYZ
    dof rx
    limits (-90.0 20.0)
  end
  begin
     id 11 
     name lowerback
     direction -0.0228371 0.999155 -0.034167   
     length 2.0537   
     axis 0 0 0   XYZ
    dof rx ry rz
    limits (-20.0 45.0)
           (-30.0 30.0)
           (-30.0 30.0)
  end
  begin
     id 12 
     name upperback
     direction 0.0198981 0.999794 0.00389455   
     length 2.05302   
     axis 0 0 0   XYZ
    dof rx ry rz
    limits (-20.0 45.0)
           (-30.0 30.0)
           (-30.0 30.0)
  end
  begin
     id 13 
     name thorax
     direction 0.0304566 0.99935 0.0192987   
     length 2.05315   
     axis 0 0 0   XYZ
    dof rx ry rz
    limits (-20.0 45.0)
           (-30.0 30.0)
           (-30.0 30.0)
  end
  begin
     id 14 
     name lowerneck
     direction -0.0196762 0.99417 0.106017   
     length 1.82056   
     axis 0 0 0   XYZ
    dof rx ry rz
    limits (-20.0 45.0)
           (-30.0 30.0)
           (-30.0 30.0)
  end
  begin
     id 15 
     name upperneck
     direction 0.00517787 0.9802 -0.197944   
     length 1.83835   
     axis 0 0 0   XYZ
    dof rx ry rz
    limits (-20.0 45.0)
           (-30.0 30.0)
           (-30.0 30.0)
  end
  begin
     id 16
     name head
     direction 0.00211419 0.996945 -0.078081  
     length 1.85629  
     axis 0 0 0   XYZ
    dof rx ry rz
    limits (-20.0 45.0)
           (-30.0 30.0)
           (-30.0 30.0)
  end
  begin
     id 17 
     name lclavicle
     direction 0.930001 0.365811 -0.0357824  
     length 3.81961  
     axis 0 0 0   XYZ
    dof ry rz
    limits (-20.0 10.0)
           (0.0 20.0)
  end
  begin
     id 18 
     name lhumerus
     direction 1 -4.48968e-011 -3.06644e-027   
     length 5.14507   
     axis 180 -30 -90   XYZ
    dof rx ry rz
    limits (-60.0 90.0)
           (-90.0 90.0)
           (-90.0 90.0)
  end
  begin
     id 19
     name lradius
     direction 1 -4.48965e-011 9.06925e-028   
     length 3.50646   
     axis 180 -30 -90   XYZ
    dof rx
    limits (-10.0 170.0)
  end
  begin
     id 20
     name lwrist
     direction 1 -4.48957e-011 1.03922e-027   
     length 1.75323   
     axis -2.56395e-016 90 90   XYZ
    dof ry
    limits (-180.0 0.0)
 end
  begin
     id 21 
     name lhand
     direction 1 -4.48967e-011 2.08017e-027   
     length 0.629969   
     axis -1.32723e-015 90 90   XYZ
    dof rx rz
    limits (-90.0 90.0)
           (-45.0 45.0)
  end
  begin
     id 22 
     name lfingers
     direction 1 -4.49089e-011 4.20095e-027   
     length 0.507897   
     axis -2.6545e-015 90 90   XYZ
    dof rx
    limits (0.0 90.0)
  end
  begin
     id 23
     name lthumb
     direction 0.707107 -6.35001e-011 0.707107   
     length 0.729241   
     axis -90 45 5.05613e-014   XYZ
    dof rx rz
    limits (-45.0 45.0)
           (-45.0 45.0)
  end
  begin
     id 24 
     name rclavicle
     direction -0.881882 0.464123 -0.0829113   
     length 3.47515  
     axis 0 0 0   XYZ 
    dof ry rz
    limits (-10.0 20.0)
           (-20.0 0.0)
  end
  begin
     id 25 
     name rhumerus
     direction -1 -4.48961e-011 -1.55672e-027  
     length 5.232   
     axis 180 30 90   XYZ
    dof rx ry rz
    limits (-90.0 60.0)
           (-90.0 90.0)
           (-90.0 90.0)
  end
  begin
     id 26 
     name rradius
     direction -1 -4.48963e-011 6.18178e-029   
     length 3.65641   
     axis 180 30 90   XYZ
    dof rx
    limits (-10.0 170.0)
  end
  begin
     id 27 
     name rwrist
     direction -1 -4.48982e-011 1.04136e-027   
     length 1.8282   
     axis -2.56395e-016 -90 -90   XYZ
    dof ry
    limits (-180.0 0.0)
  end
  begin
     id 28
     name rhand
     direction -1 -4.48929e-011 2.07378e-027   
     length 0.656807   
     axis -1.32723e-015 -90 -90   XYZ
    dof rx rz
    limits (-90.0 90.0)
           (-45.0 45.0)
  end
  begin
     id 29
     name rfingers
     direction -1 -4.489e-011 4.13816e-027   
     length 0.529535   
     axis -2.6545e-015 -90 -90   XYZ
    dof rx
    limits (0.0 90.0)
  end
  begin
     id 30
     name rthumb
     direction -0.707107 -6.34843e-011 0.707107   
     length 0.760309   
     axis -90 -45 -5.05613e-014   XYZ
    dof rx rz
    limits (-45.0 45.0)
           (-45.0 45.0)
  end
:hierarchy
  begin
    root lhipjoint rhipjoint lowerback
    lhipjoint lfemur
    lfemur ltibia
    ltibia lfoot
    lfoot ltoes
    rhipjoint rfemur
    rfemur rtibia
    rtibia rfoot
    rfoot rtoes
    lowerback upperback
    upperback thorax
    thorax lowerneck lclavicle rclavicle
    lowerneck upperneck
    upperneck head
    lclavicle lhumerus
    lhumerus lradius
    lradius lwrist
    lwrist lhand lthumb
    lhand lfingers
    rclavicle rhumerus
    rhumerus rradius
    rradius rwrist
    rwrist rhand rthumb
    rhand rfingers
  end

#!OML:ASF H:\ManfredETheater\Project 1\Capture day 1\Session 1\subject.ASF
:FULLY-SPECIFIED
:DEGREES
16
root -2.9396 15.3622 37.6367 -156.766 -0.441705 179.196
lowerback 18.636 -3.01649 0.592809
upperback -0.366747 -3.7026 4.10143
thorax -10.642 -1.75886 5.21935
lowerneck -18.6779 1.59686 -0.472333
upperneck 2.88181 2.8384 -3.35067
head 3.86512 1.33507 -0.716818
rclavicle -1.92821e-014 -9.54166e-015
rhumerus -59.4266 -2.92654 -84.6005
rradius 79.3819
rwrist -10.103
rhand -28.5254 -12.4774
rfingers 7.12502
rthumb -1.89334 -42.4487
lclavicle -1.92821e-014 -9.54166e-015
lhumerus -30.4314 -19.2808 100.782
lradius 106.38
lwrist 11.1584
lhand -24.6399 -9.87163
lfingers 7.12502
lthumb 1.85934 20.1
rfemur -53.7195 -1.38748 25.0612
rtibia 67.2611
rfoot -29.8222 -16.7781
rtoes -28.0631
lfemur -22.0775 -0.0738378 -16.8124
ltibia 77.7835
lfoot 11.6433 -10.7528
ltoes 1.08176
17
root -2.90246 15.3926 37.3178 -156.922 -0.685189 179.694
lowerback 18.8364 -2.88359 1.16595
upperback -0.216144 -3.41749 4.25931
thorax -10.6327 -1.66562 5.00075
lowerneck -18.6038 1.49411 -0.616362
upperneck 2.82283 2.74146 -3.39782
head 3.8334 1.28659 -0.717476
rclavicle 7.15625e-015 -1.07344e-014
rhumerus -56.9907 -2.79845 -85.4426
rradius 79.5265
rwrist -9.62642
rhand -28.3411 -14.4213
rfingers 7.12502
rthumb -1.71537 -44.3941
lclavicle 7.15625e-015 -1.07344e-014
lhumerus -31.6741 -18.5867 101.042
lradius 103.295
lwrist 12.6442
lhand -25.0547 -10.5628
lfingers 7.12502
lthumb 1.45878 19.412
rfemur -51.6346 -1.25151 25.7608
rtibia 66.356
rfoot -30.4914 -17.4869
rtoes -28.6135
lfemur -25.55 0.910422 -15.8763
ltibia 82.8139
lfoot 8.73702 -10.825
ltoes -0.577573
18
root -2.86554 15.4209 36.9988 -157.073 -0.875504 180.129
lowerback 19.0175 -2.7349 1.65723
upperback -0.103101 -3.12583 4.38578
thorax -10.6478 -1.56284 4.79124
lowerneck -18.5548 1.40591 -0.747354
upperneck 2.86199 2.66068 -3.46
head 3.83672 1.24137 -0.722927
rclavicle 2.8625e-014 -2.22639e-014
rhumerus -54.6679 -2.41952 -86.3566
rradius 80.061
rwrist -9.01472
rhand -28.0281 -17.071
rfingers 7.12502
rthumb -1.41309 -47.0461
lclavicle 2.8625e-014 -2.22639e-014
lhumerus -33.1286 -18.0115 101.193
lradius 100.677
lwrist 13.8643
lhand -25.2393 -11.3767
lfingers 7.12502
lthumb 1.28049 18.5992
rfemur -49.5351 -1.13909 26.3875
rtibia 65.3643
rfoot -31.1295 -18.1228
rtoes -29.0852
lfemur -29.1316 1.92052 -15.061
ltibia 87.7133
lfoot 5.98495 -10.7806
ltoes -1.51385
19
root -2.82893 15.448 36.6789 -157.21 -1.00049 180.488
lowerback 19.1584 -2.57212 2.05613
upperback -0.0136494 -2.83395 4.466
thorax -10.6606 -1.45376 4.57946
lowerneck -18.5416 1.33528 -0.843136
upperneck 2.96814 2.59638 -3.53423
head 3.86716 1.20123 -0.735876
rclavicle -4.37326e-014 4.85035e-014
rhumerus -52.493 -1.79866 -87.3436
rradius 81.0494
rwrist -8.36664
rhand -27.6417 -20.1421
rfingers 7.12502
rthumb -1.0399 -50.1193
lclavicle -4.37326e-014 4.85035e-014
lhumerus -34.8587 -17.5948 101.25
lradius 98.7302
lwrist 14.576
lhand -25.2426 -12.2981
lfingers 7.12502
lthumb 1.27724 17.6778
rfemur -47.4228 -1.03704 26.9165
rtibia 64.2816
rfoot -31.7361 -18.6795
rtoes -29.4665
lfemur -32.8294 2.97168 -14.4007
ltibia 92.4325
lfoot 3.37106 -10.6677
ltoes -1.83836
20
root -2.79306 15.475 36.3571 -157.322 -1.04054 180.76
lowerback 19.2513 -2.39259 2.34761
upperback 0.0543934 -2.54201 4.48772
thorax -10.6648 -1.33739 4.35984
lowerneck -18.5583 1.28095 -0.888229
upperneck 3.11253 2.54393 -3.62051
head 3.91501 1.16516 -0.759389
rclavicle -1.19271e-015 3.57812e-014
rhumerus -50.5141 -0.943702 -88.3964
rradius 82.5396
rwrist -7.80517
rhand -27.3089 -23.1887
rfingers 7.12502
rthumb -0.718436 -53.1672
lclavicle -1.19271e-015 3.57812e-014
lhumerus -36.9245 -17.3422 101.239
lradius 97.6143
lwrist 14.6296
lhand -25.0968 -13.2754
lfingers 7.12502
lthumb 1.41812 16.6996
rfemur -45.3015 -0.927122 27.3208
rtibia 63.0966
rfoot -32.303 -19.1444
rtoes -29.7334
lfemur -36.6525 4.08313 -13.941
ltibia 96.9203
lfoot 0.862337 -10.5031
ltoes -1.94075
21
root -2.7586 15.5031 36.0317 -157.406 -1.00386 180.977
lowerback 19.2915 -2.20178 2.57202
upperback 0.103569 -2.2494 4.45264
thorax -10.6573 -1.21573 4.11129
lowerneck -18.5703 1.23275 -0.891847
upperneck 3.25603 2.48857 -3.69679
head 3.96208 1.12847 -0.786777
rclavicle -1.43125e-014 8.5875e-014
rhumerus -48.7716 0.137763 -89.5049
rradius 84.5441
rwrist -7.43957
rhand -27.1876 -25.6842
rfingers 7.12502
rthumb -0.601278 -55.6631
lclavicle -1.43125e-014 8.5875e-014
lhumerus -39.3545 -17.2446 101.191
lradius 97.3984
lwrist 14.047
lhand -24.8675 -14.2582
lfingers 7.12502
lthumb 1.63954 15.7152
rfemur -43.1481 -0.799743 27.6302
rtibia 61.7852
rfoot -32.8436 -19.5071
rtoes -29.884
lfemur -40.588 5.24902 -13.6644
ltibia 101.128
lfoot -1.55551 -10.3045
ltoes -1.86789
